<svg width="250" height="186" viewBox="0 0 250 186" fill="none" xmlns="http://www.w3.org/2000/svg">
<path d="M113.08 2.64001C131.64 2.64001 146.69 17.69 146.69 36.25V148.63C146.69 167.19 131.64 182.24 113.08 182.24C94.52 182.24 79.47 167.19 79.47 148.63V36.25C79.47 17.69 94.52 2.64001 113.08 2.64001Z" fill="#21F3B3"/>
<path d="M192.15 2.64001C210.71 2.64001 225.76 17.69 225.76 36.25C225.76 54.81 210.71 69.86 192.15 69.86C173.59 69.86 158.54 54.81 158.54 36.25C158.54 17.69 173.59 2.64001 192.15 2.64001Z" fill="#21F3B3"/>
<path d="M33.61 2.64001C52.17 2.64001 67.22 17.69 67.22 36.25V148.63C67.22 167.19 52.17 182.24 33.61 182.24C15.05 182.24 0 167.19 0 148.63V36.25C0 17.69 15.05 2.64001 33.61 2.64001Z" fill="#02373C"/>
<path d="M79.47 148.64C79.47 130.08 94.52 115.03 113.08 115.03C131.64 115.03 146.69 130.08 146.69 148.64C146.69 167.2 131.64 182.25 113.08 182.25C94.52 182.25 79.47 167.2 79.47 148.64Z" fill="#02373C"/>
</svg>

