<svg width="1012" height="186" viewBox="0 0 1012 186" fill="none" xmlns="http://www.w3.org/2000/svg">
<g clip-path="url(#clip0_17823_78)">
<path d="M113.08 2.64001C131.64 2.64001 146.69 17.69 146.69 36.25V148.63C146.69 167.19 131.64 182.24 113.08 182.24C94.52 182.24 79.47 167.19 79.47 148.63V36.25C79.47 17.69 94.52 2.64001 113.08 2.64001Z" fill="#21F3B3"/>
<path d="M192.15 2.64001C210.71 2.64001 225.76 17.69 225.76 36.25C225.76 54.81 210.71 69.86 192.15 69.86C173.59 69.86 158.54 54.81 158.54 36.25C158.54 17.69 173.59 2.64001 192.15 2.64001Z" fill="#21F3B3"/>
<path d="M33.61 2.64001C52.17 2.64001 67.22 17.69 67.22 36.25V148.63C67.22 167.19 52.17 182.24 33.61 182.24C15.05 182.24 0 167.19 0 148.63V36.25C0 17.69 15.05 2.64001 33.61 2.64001Z" fill="#02373C"/>
<path d="M79.47 148.64C79.47 130.08 94.52 115.03 113.08 115.03C131.64 115.03 146.69 130.08 146.69 148.64C146.69 167.2 131.64 182.25 113.08 182.25C94.52 182.25 79.47 167.2 79.47 148.64Z" fill="#02373C"/>
<path d="M333.81 126.93H387.05V148.64H325.63C307.6 148.64 292.98 134.02 292.98 115.99V2.34998H317.43V110.55C317.43 119.6 324.76 126.93 333.81 126.93Z" fill="#02373C"/>
<path d="M490.9 113.83C486.6 137.3 466.06 150.99 441.42 150.99C408.37 150.99 386.46 125.37 386.46 92.32C386.46 59.27 407.58 33.65 439.26 33.65C473.29 33.65 494.02 60.84 488.16 96.23H410.12C411.29 115.4 422.83 129.48 441.41 129.48C455.1 129.48 465.27 122.05 468.2 109.73L490.89 113.84L490.9 113.83ZM411.89 76.86H464.89C463.91 63.95 453.94 54.96 440.44 54.96C426.94 54.96 415.99 62.78 411.89 76.86Z" fill="#02373C"/>
<path d="M563.66 127.91L560.92 148.64H546.07C527.83 148.64 512.41 133.83 512.41 115.03V56.72H493.63V35.99H512.41V10.36L536.27 0V35.99H560.91V56.72H536.27V112.14C536.27 120.85 543.33 127.91 552.04 127.91H563.65H563.66Z" fill="#02373C"/>
<path d="M565.41 113.63L589.07 110.7C592.2 124.2 603.35 132.02 615.86 132.02C627.2 132.02 634.83 126.54 634.83 118.33C634.83 90.56 568.33 112.27 568.33 67.28C568.33 47.33 585.93 33.64 611.36 33.64C634.83 33.64 654.97 47.53 658.3 67.28L634.44 70.8C631.51 59.65 622.12 52.42 610.38 52.42C599.82 52.42 592.39 57.31 592.39 64.74C592.39 88.8 659.08 69.04 659.08 115.98C659.08 136.71 640.5 150.99 614.88 150.99C589.26 150.99 568.92 135.93 565.4 113.64L565.41 113.63Z" fill="#02373C"/>
<path d="M782.3 107.33V148.64H757.66V112.07C757.66 98.77 749.05 89.19 734.39 89.19H698.8V148.64H674.35V2.34998H729.7C763.53 2.34998 783.68 18.78 783.68 45.77C783.68 60.24 777.62 71.78 766.47 78.82C776.83 85.23 782.31 96.4 782.31 107.34L782.3 107.33ZM758.44 45.76C758.44 31.88 747.88 24.05 729.1 24.05H698.79V67.47H729.1C747.88 67.47 758.44 59.65 758.44 45.76Z" fill="#02373C"/>
<path d="M901.41 113.83C897.11 137.3 876.57 150.99 851.93 150.99C818.88 150.99 796.97 125.37 796.97 92.32C796.97 59.27 818.09 33.65 849.77 33.65C883.8 33.65 904.53 60.84 898.67 96.23H820.63C821.8 115.4 833.34 129.48 851.92 129.48C865.61 129.48 875.78 122.05 878.71 109.73L901.4 113.84L901.41 113.83ZM822.4 76.86H875.4C874.42 63.95 864.45 54.96 850.95 54.96C837.45 54.96 826.5 62.78 822.4 76.86Z" fill="#02373C"/>
<path d="M1011.09 35.86V140.19C1011.09 167.2 990.54 185.8 960.2 185.8C936.32 185.8 913.22 171.9 908.52 148.22L930.83 145.28C934.55 158 946.49 165.83 960.19 165.83C976.44 165.83 987.4 155.65 987.4 140.19V118.66C981.33 131.58 969 139.41 954.91 139.41C928.68 139.41 909.69 118.07 909.69 86.36C909.69 54.65 928.68 33.51 954.91 33.51C969.79 33.51 982.71 42.32 988.38 56.41L990.53 35.86H1011.08H1011.09ZM987.4 87.73C987.4 68.74 976.83 55.82 960.98 55.82C945.13 55.82 933.38 68.54 933.38 87.73C933.38 106.92 944.73 119.63 960.98 119.63C977.23 119.63 987.4 107.1 987.4 87.73Z" fill="#02373C"/>
</g>
<defs>
<clipPath id="clip0_17823_78">
<rect width="1011.09" height="185.8" fill="white"/>
</clipPath>
</defs>
</svg>
